<svg id="e5d1c6d5-4a4a-4dd2-8076-ec17f0f0c821" data-name="Capa 1" xmlns="http://www.w3.org/2000/svg" viewBox="0 0 444.53 613.97"><defs><style>.b12abb19-b2ac-493b-a4e0-ddc5ad7e770e{fill:#fff;}</style></defs><title>Logo 4 negativo transparente</title><path class="b12abb19-b2ac-493b-a4e0-ddc5ad7e770e" d="M388.26,561.58l-105.56-74,6.08,54.82c.37,4.74,2.43,11.72,6.11,20.75,4.5,11,6.59,19,6.59,25,0,10.87-5.34,20.83-15.89,29.6a53.34,53.34,0,0,1-11.73,7.42l42.87,58.33,80.83-110C394.08,566.91,390.83,563.41,388.26,561.58Z" transform="translate(-94.47 -69.52)"/><polygon class="b12abb19-b2ac-493b-a4e0-ddc5ad7e770e" points="0 311.54 89.45 433.25 78.14 202.01 0 311.54"/><path class="b12abb19-b2ac-493b-a4e0-ddc5ad7e770e" d="M283.59,149.21l.06.1c3.42,5.66,5.16,11.3,5.16,16.76s-2.31,12.19-7.06,20.5c-4.09,7.17-4.95,11.45-4.95,13.77V319.17l97-155q2-4.64,3.88-9.26L316.73,69.52l-46.91,65.76A45.78,45.78,0,0,1,283.59,149.21Z" transform="translate(-94.47 -69.52)"/><polygon class="b12abb19-b2ac-493b-a4e0-ddc5ad7e770e" points="364.75 420.1 444.53 311.54 346.29 173.83 242.62 336.62 364.75 420.1"/><path class="b12abb19-b2ac-493b-a4e0-ddc5ad7e770e" d="M521.4,552.74c-2-5.62-7.19-10.78-15.33-15.35l-29-16.22-.62-.38L315.27,410.6,454.2,192.44c2.62-4.14,8.3-8.35,18.39-13.62l.24-.12c2.75-1.32,6.59-4,8.29-12.34,2.28-12.68-12.81-22.25-17.78-25.4-13.29-8.34-26.45-12.58-39.08-12.58-15,0-20.6,6.49-23.42,11.59-3.89,10.13-8.13,20.57-12.59,31l-.25.58-.33.53L260.8,374.91V200.34c0-6.28,2.31-13.38,7.05-21.7,4.47-7.82,5-11.4,5-12.57a16.8,16.8,0,0,0-2.83-8.44c-8.65-13.83-31.5-20.83-67.9-20.83-12.37,0-16,1.2-16.68,1.51-12.19,9.79-14,15.94-14,18.74,0,.55.25,3.69,5.24,12.19,4.88,8.34,7.52,15.53,8.07,22l0,.29,17.36,354.92v.2c0,6.49-3.2,13.19-9.51,19.9-4.5,4.79-5.17,7.67-5.17,9,0,8.6,7.23,17.42,21.49,26.22,14.23,8.41,27.65,12.67,39.9,12.67,10.62,0,19.32-2.93,26.58-9,6.81-5.67,10.12-11.33,10.12-17.3,0-2.1-.7-7.37-5.41-18.92-4.33-10.63-6.7-19-7.23-25.41l-9.94-89.62,134.59,94.33c10.12,7.21,18.1,21.79,24.45,44.63,4.58,15.45,13.35,25.09,26.81,29.47a41.16,41.16,0,0,0,12.87,2c14.86,0,28.52-6.33,41.76-19.35S523,578.82,523,564.08A39.75,39.75,0,0,0,521.4,552.74Z" transform="translate(-94.47 -69.52)"/></svg>